<svg xmlns="http://www.w3.org/2000/svg" xmlns:xlink="http://www.w3.org/1999/xlink" xml:lang="en" height="257.2pt" width="587.0240000000001pt" viewBox="-181.516 -48.00000000000001 587.0240000000001 257.2" style="background-color:white;"><polygon points="9,63.9 -0,76.5 -9,63.9 " style="stroke:black;fill:black;stroke-width:2.0;stroke-dasharray:-;stroke-linecap:round;stroke-linejoin:round;" /><path d="M 0.0,-0.0 L 0,-14.4" style="stroke:black;fill:none;stroke-width:2.0;stroke-dasharray:-;stroke-linecap:round;stroke-linejoin:round;" /><path d="M 0.0,-14.4 L -6.75,-14.4" style="stroke:black;fill:none;stroke-width:2.0;stroke-dasharray:-;stroke-linecap:round;stroke-linejoin:round;" /><path d="M 0.0,-14.4 L 6.75,-14.4" style="stroke:black;fill:none;stroke-width:2.0;stroke-dasharray:-;stroke-linecap:round;stroke-linejoin:round;" /><path d="M 0.0,-0.0 L -0,2.7 L -0,5.4" style="stroke:black;fill:none;stroke-width:2.0;stroke-dasharray:-;stroke-linecap:round;stroke-linejoin:round;" /><path d="M -9.91963907309356e-16,5.3999999999999995 L -0,7.2 L 9,10.2 L -9,16.2 L 9,22.2 L -9,28.2 L 9,34.2 L -9,40.2 L -0,43.2 L -0,45" style="stroke:black;fill:none;stroke-width:2.0;stroke-dasharray:-;stroke-linecap:round;stroke-linejoin:round;" /><path d="M -8.266365894244634e-15,45.0 L -0,63.9 M 9,76.5 L -9,76.5 M -0,76.5 L -0,95.4" style="stroke:black;fill:none;stroke-width:2.0;stroke-dasharray:-;stroke-linecap:round;stroke-linejoin:round;" /><path d="M 13.499999999999986,72.89999999999999 L 22.999,78.328" style="stroke:black;fill:none;stroke-width:2.0;stroke-dasharray:-;stroke-linecap:round;stroke-linejoin:round;" /><path d="M 27.514 80.908 L 21.57 80.828 L 24.428 75.827 Z" style="stroke:black;fill:black;stroke-linecap:butt;stroke-linejoin:miter;" /><path d="M 13.499999999999988,64.8 L 22.999,70.228" style="stroke:black;fill:none;stroke-width:2.0;stroke-dasharray:-;stroke-linecap:round;stroke-linejoin:round;" /><path d="M 27.514 72.808 L 21.57 72.728 L 24.428 67.727 Z" style="stroke:black;fill:black;stroke-linecap:butt;stroke-linejoin:miter;" /><path d="M -27.060000000000013,120.48 L -13.86,120.48" style="stroke:black;fill:none;stroke-width:2.0;stroke-dasharray:-;stroke-linecap:round;stroke-linejoin:round;" /><path d="M -13.860000000000017,107.28 L -13.86,133.68" style="stroke:black;fill:none;stroke-width:2.0;stroke-dasharray:-;stroke-linecap:round;stroke-linejoin:round;" /><path d="M -13.860000000000017,113.88 L -0,102 L -0,95.4" style="stroke:black;fill:none;stroke-width:2.0;stroke-dasharray:-;stroke-linecap:round;stroke-linejoin:round;" /><path d="M -13.860000000000017,127.08 L -0,138.96 L -0,145.56" style="stroke:black;fill:none;stroke-width:2.0;stroke-dasharray:-;stroke-linecap:round;stroke-linejoin:round;" /><path d="M -13.860000000000017,127.08 L -6.833,133.103" style="stroke:black;fill:none;stroke-width:2.0;stroke-dasharray:-;stroke-linecap:round;stroke-linejoin:round;" /><path d="M -1.519 137.658 L -9.176 135.836 L -4.49 130.37 Z" style="stroke:black;fill:black;stroke-linecap:butt;stroke-linejoin:miter;" /><path d="M -1.7524695695798622e-14,145.56 L -0,156.36 L -0,167.16" style="stroke:black;fill:none;stroke-width:2.0;stroke-dasharray:-;stroke-linecap:round;stroke-linejoin:round;" /><path d="M -2.1492551325036047e-14,167.15999999999997 L -0,181.56 L -9,181.56 L 9,181.56 M -6.3,185.88 L 6.3,185.88 M -1.8,190.2 L 1.8,190.2" style="stroke:black;fill:none;stroke-width:2.0;stroke-dasharray:-;stroke-linecap:round;stroke-linejoin:round;" /><path d="M -27.060000000000013,120.48 L -45.06,120.48 L -48.06,129.48 L -54.06,111.48 L -60.06,129.48 L -66.06,111.48 L -72.06,129.48 L -78.06,111.48 L -81.06,120.48 L -99.06,120.48" style="stroke:black;fill:none;stroke-width:2.0;stroke-dasharray:-;stroke-linecap:round;stroke-linejoin:round;" /><path d="M 270.0,-0.0 L 270,-14.4" style="stroke:black;fill:none;stroke-width:2.0;stroke-dasharray:-;stroke-linecap:round;stroke-linejoin:round;" /><path d="M 270.0,-14.4 L 263.25,-14.4" style="stroke:black;fill:none;stroke-width:2.0;stroke-dasharray:-;stroke-linecap:round;stroke-linejoin:round;" /><path d="M 270.0,-14.4 L 276.75,-14.4" style="stroke:black;fill:none;stroke-width:2.0;stroke-dasharray:-;stroke-linecap:round;stroke-linejoin:round;" /><path d="M 270.0,-0.0 L 270,13.95 L 270,27.9" style="stroke:black;fill:none;stroke-width:2.0;stroke-dasharray:-;stroke-linecap:round;stroke-linejoin:round;" /><path d="M 270.0,27.900000000000002 L 270,29.7 L 279,32.7 L 261,38.7 L 279,44.7 L 261,50.7 L 279,56.7 L 261,62.7 L 270,65.7 L 270,67.5" style="stroke:black;fill:none;stroke-width:2.0;stroke-dasharray:-;stroke-linecap:round;stroke-linejoin:round;" /><path d="M 270.0,67.5 L 270,81.45 L 270,95.4" style="stroke:black;fill:none;stroke-width:2.0;stroke-dasharray:-;stroke-linecap:round;stroke-linejoin:round;" /><path d="M 256.14,107.28 L 256.14,133.68" style="stroke:black;fill:none;stroke-width:2.0;stroke-dasharray:-;stroke-linecap:round;stroke-linejoin:round;" /><path d="M 256.14,113.88 L 270,102 L 270,95.4" style="stroke:black;fill:none;stroke-width:2.0;stroke-dasharray:-;stroke-linecap:round;stroke-linejoin:round;" /><path d="M 256.14,127.08 L 270,138.96 L 270,145.56" style="stroke:black;fill:none;stroke-width:2.0;stroke-dasharray:-;stroke-linecap:round;stroke-linejoin:round;" /><path d="M 256.14,127.08 L 263.167,133.103" style="stroke:black;fill:none;stroke-width:2.0;stroke-dasharray:-;stroke-linecap:round;stroke-linejoin:round;" /><path d="M 268.481 137.658 L 260.824 135.836 L 265.51 130.37 Z" style="stroke:black;fill:black;stroke-linecap:butt;stroke-linejoin:miter;" /><path d="M 239.34,107.28 L 245.505,111.664" style="stroke:black;fill:none;stroke-width:2.0;stroke-dasharray:-;stroke-linecap:round;stroke-linejoin:round;" /><path d="M 251.21 115.721 L 243.419 114.598 L 247.592 108.73 Z" style="stroke:black;fill:black;stroke-linecap:butt;stroke-linejoin:miter;" /><path d="M 239.34,116.28 L 245.505,120.664" style="stroke:black;fill:none;stroke-width:2.0;stroke-dasharray:-;stroke-linecap:round;stroke-linejoin:round;" /><path d="M 251.21 124.721 L 243.419 123.598 L 247.592 117.73 Z" style="stroke:black;fill:black;stroke-linecap:butt;stroke-linejoin:miter;" /><path d="M 270.0,145.56 L 270,156.36 L 270,167.16" style="stroke:black;fill:none;stroke-width:2.0;stroke-dasharray:-;stroke-linecap:round;stroke-linejoin:round;" /><path d="M 270.0,167.15999999999997 L 270,181.56 L 261,181.56 L 279,181.56 M 263.7,185.88 L 276.3,185.88 M 268.2,190.2 L 271.8,190.2" style="stroke:black;fill:none;stroke-width:2.0;stroke-dasharray:-;stroke-linecap:round;stroke-linejoin:round;" /><path d="M 270.0,95.39999999999999 L 302.4,95.4 L 334.8,95.4" style="stroke:black;fill:none;stroke-width:2.0;stroke-dasharray:-;stroke-linecap:round;stroke-linejoin:round;" /><text x="0.0" y="-29.0" dominant-baseline="ideographic" fill="black" font-size="11" font-family="sans" text-anchor="middle"><tspan x="0.0" dy="11">VCC</tspan></text><text x="12.599999999999994" y="14.200000000000006" dominant-baseline="central" fill="black" font-size="11" font-family="sans" text-anchor="start"><tspan x="12.599999999999994" dy="11">R1</tspan></text><text x="-12.600000000000012" y="53.69999999999999" dominant-baseline="central" fill="black" font-size="11" font-family="sans" text-anchor="end"><tspan x="-12.600000000000012" dy="11">IR LED</tspan><tspan x="-12.600000000000012" dy="11">(TX)</tspan></text><text x="3.599999999999982" y="109.78" dominant-baseline="central" fill="black" font-size="11" font-family="sans" text-anchor="start"><tspan x="3.599999999999982" dy="11">Q1</tspan></text><text x="-63.06000000000001" y="96.88" dominant-baseline="ideographic" fill="black" font-size="11" font-family="sans" text-anchor="middle"><tspan x="-63.06000000000001" dy="11">R2</tspan></text><text x="270.0" y="-29.0" dominant-baseline="ideographic" fill="black" font-size="11" font-family="sans" text-anchor="middle"><tspan x="270.0" dy="11">VCC</tspan></text><text x="282.59999999999997" y="36.7" dominant-baseline="central" fill="black" font-size="11" font-family="sans" text-anchor="start"><tspan x="282.59999999999997" dy="11">R3</tspan></text><text x="235.74" y="104.28" dominant-baseline="central" fill="black" font-size="11" font-family="sans" text-anchor="end"><tspan x="235.74" dy="11">Phototransistor</tspan><tspan x="235.74" dy="11">(RX)</tspan></text><circle cx="-99.06" cy="120.48" r="2.7" style="stroke:black;fill:white;stroke-width:2.0;stroke-dasharray:-;" /><text x="-105.36" y="103.97999999999999" dominant-baseline="central" fill="black" font-size="11" font-family="sans" text-anchor="end"><tspan x="-105.36" dy="11">LED drive</tspan><tspan x="-105.36" dy="11">(from MCU)</tspan></text><circle cx="270" cy="95.4" r="2.7" style="stroke:black;fill:black;stroke-width:2.0;stroke-dasharray:-;" /><circle cx="334.8" cy="95.4" r="2.7" style="stroke:black;fill:white;stroke-width:2.0;stroke-dasharray:-;" /><text x="341.1" y="78.89999999999999" dominant-baseline="central" fill="black" font-size="11" font-family="sans" text-anchor="start"><tspan x="341.1" dy="11">PT signal</tspan><tspan x="341.1" dy="11">(to MCU)</tspan></text></svg>